<?xml version="1.0" standalone="no"?>
<!DOCTYPE svg PUBLIC "-//W3C//DTD SVG 20010904//EN"
 "http://www.w3.org/TR/2001/REC-SVG-20010904/DTD/svg10.dtd">
<svg version="1.0" xmlns="http://www.w3.org/2000/svg"
 width="920.000000pt" height="277.000000pt" viewBox="0 0 920.000000 277.000000"
 preserveAspectRatio="xMidYMid meet">

<g transform="translate(0.000000,277.000000) scale(0.100000,-0.100000)"
fill="#000000" stroke="none">
<path d="M7224 2222 c-17 -2 -40 -13 -51 -25 -19 -21 -21 -48 -34 -562 -16
-640 -16 -736 0 -835 14 -92 37 -120 104 -127 36 -4 49 -1 66 16 11 11 21 32
21 46 0 29 2 30 66 10 156 -47 293 13 360 160 74 162 84 432 19 572 -84 183
-303 269 -425 166 l-30 -25 0 39 c0 21 5 70 10 109 5 39 14 130 20 203 13 148
7 182 -38 223 -32 30 -46 34 -88 30z m343 -738 c38 -42 53 -115 53 -264 0
-260 -59 -368 -187 -340 -47 11 -88 55 -105 112 -21 74 -16 251 10 337 35 111
72 164 129 181 39 11 74 2 100 -26z"/>
<path d="M1683 2180 c-107 -25 -124 -65 -218 -520 -87 -420 -150 -620 -195
-620 -50 0 -114 156 -189 463 -53 213 -74 331 -94 512 l-12 109 -55 28 c-52
26 -58 27 -125 18 -76 -11 -112 -31 -134 -75 -12 -24 -11 -32 8 -70 24 -48 25
14 -10 -700 -14 -290 -2 -440 42 -527 24 -46 50 -61 107 -60 92 2 111 44 71
158 -12 36 -24 105 -29 179 -10 134 -11 452 -1 560 l6 70 34 -125 c55 -205
155 -500 200 -591 86 -176 192 -232 271 -143 71 82 121 213 211 559 33 127 61
234 62 239 2 5 1 -126 -1 -290 -5 -321 4 -412 49 -527 38 -97 83 -139 146
-139 70 0 99 75 49 125 -44 45 -51 92 -50 357 1 243 11 415 40 663 15 131 27
171 65 219 44 54 0 102 -119 127 -59 12 -82 13 -129 1z"/>
<path d="M4597 2180 c-102 -18 -188 -79 -256 -183 -113 -174 -121 -381 -21
-535 48 -76 117 -135 275 -239 197 -129 205 -135 255 -180 82 -74 91 -141 23
-170 -26 -10 -70 -15 -152 -14 -151 1 -207 17 -286 84 -98 82 -156 94 -203 44
-30 -33 -35 -62 -17 -101 53 -111 406 -219 609 -186 197 32 305 111 314 229 8
115 -48 177 -328 364 -213 143 -283 205 -326 294 -52 104 -32 233 49 329 55
65 165 92 241 60 91 -38 135 -191 102 -356 -12 -61 -12 -79 -2 -105 29 -68
100 -94 150 -54 38 30 66 93 66 152 0 81 -39 299 -65 354 -69 152 -250 242
-428 213z"/>
<path d="M3878 2139 c-16 -9 -18 -30 -19 -187 -1 -97 -4 -215 -7 -260 l-7 -84
-28 22 c-37 29 -119 60 -160 60 -76 -1 -162 -68 -215 -169 -70 -132 -122 -374
-106 -499 23 -197 132 -304 308 -304 63 0 120 20 174 63 l24 18 22 -41 c39
-74 126 -98 171 -48 17 19 17 24 -1 102 -14 64 -19 120 -18 243 2 284 24 682
46 810 25 150 21 200 -20 237 -47 41 -127 59 -164 37z m-101 -673 c52 -50 69
-134 54 -266 -15 -144 -44 -231 -95 -286 -65 -71 -149 -71 -191 -1 -30 49 -32
204 -6 332 47 229 141 316 238 221z"/>
<path d="M2164 1954 c-78 -38 -69 -150 16 -194 93 -47 180 -7 180 83 0 96
-106 156 -196 111z"/>
<path d="M6814 1954 c-78 -38 -69 -150 16 -194 93 -47 180 -7 180 83 0 96
-106 156 -196 111z"/>
<path d="M5492 1654 c-137 -70 -275 -438 -242 -647 14 -91 38 -144 91 -202 53
-58 97 -80 183 -96 78 -15 182 -2 244 30 58 30 148 109 182 159 40 60 40 100
-1 147 -48 54 -100 42 -138 -33 -22 -43 -103 -122 -151 -147 -45 -23 -113 -22
-149 4 -46 33 -63 90 -63 206 1 233 86 435 183 435 43 0 55 -8 68 -43 17 -43
14 -208 -4 -251 -18 -44 -9 -68 35 -91 67 -35 109 -7 142 96 23 74 28 205 9
261 -28 83 -182 179 -296 185 -42 3 -70 -1 -93 -13z"/>
<path d="M2512 1630 c-37 -23 -56 -63 -46 -100 3 -14 6 -176 5 -361 -2 -296 0
-341 15 -378 12 -32 26 -47 50 -57 51 -21 91 -18 119 11 29 28 30 41 9 160
-25 145 -3 280 68 418 51 97 116 167 156 167 42 0 81 -46 105 -127 17 -59 20
-105 24 -343 l5 -276 42 -17 c58 -24 98 -22 124 6 21 22 22 32 22 223 0 399
-59 563 -233 648 -121 60 -218 40 -295 -58 l-22 -29 0 46 c0 37 -5 49 -26 66
-34 26 -80 27 -122 1z"/>
<path d="M6377 1636 c-21 -8 -47 -22 -57 -31 -17 -15 -21 -15 -49 -1 -47 25
-114 21 -148 -8 -27 -23 -28 -28 -28 -113 1 -237 18 -689 26 -705 31 -57 164
-52 191 7 9 19 8 34 -3 67 -10 31 -14 93 -14 213 1 147 4 181 24 250 34 118
62 169 93 173 29 4 58 -28 58 -63 0 -25 31 -61 59 -70 22 -7 54 7 89 38 64 59
-25 214 -143 246 -49 13 -51 13 -98 -3z"/>
<path d="M8184 1631 c-130 -56 -256 -413 -224 -634 28 -194 124 -277 318 -277
137 0 262 40 328 107 42 41 54 95 29 123 -30 33 -82 25 -188 -26 -69 -33 -112
-47 -155 -51 -57 -5 -63 -4 -90 24 -32 31 -52 86 -52 141 l0 33 32 -17 c86
-44 270 2 362 92 75 73 98 183 55 270 -28 59 -125 146 -205 185 -71 35 -167
48 -210 30z m183 -182 c27 -23 53 -88 53 -135 0 -39 -5 -51 -33 -79 -63 -63
-178 -55 -207 14 -26 63 23 185 84 212 26 11 83 4 103 -12z"/>
<path d="M2127 1623 c-4 -6 -11 -81 -18 -169 -17 -237 3 -599 35 -663 30 -57
120 -80 167 -42 22 18 23 21 11 83 -20 107 -15 492 7 612 22 114 17 137 -31
162 -37 19 -162 32 -171 17z"/>
<path d="M6777 1623 c-4 -6 -11 -81 -18 -169 -17 -237 3 -599 35 -663 30 -57
120 -80 167 -42 22 18 23 21 11 83 -20 107 -15 492 7 612 22 114 17 137 -31
162 -37 19 -162 32 -171 17z"/>
</g>
</svg>
